# xmcd
#
# Track frame offsets: 
#        150
#        25123
#        42077
#        60351
#        78265
#        91567
#        104641
#        123515
#        142143
#        154187
#        180976
#        216815
#        231715
#        256602
#        281914
#        304162
#        325482
#        339987
#
# Disc length: 4786 seconds
#
# Revision: 0
# Processed by: cddbd v1.5.2PL0 Copyright (c) Steve Scherf et al.
# Submitted via: ExactAudioCopy v0.95a5
#
DISCID=f912b012
DTITLE=Various Artist - Blues Instrumental - 3
DYEAR=2007
DGENRE=Blues
TTITLE0=Desert rain - INNES SIBUN
TTITLE1=Bi polar - IKE TURNER
TTITLE2=Float - PETER FRAMPTON
TTITLE3=Heckbound Train - HENRY COOPER
TTITLE4=Marine Layer - PAUL GILBERT
TTITLE5=Revenge of the 10 Gallon Hat - JOE BONAMASSA
TTITLE6=Memories - DANNY BRYANT
TTITLE7=Toscho's Boogie - BLUES COMPANY
TTITLE8=East Monroe - INNES SIBUN
TTITLE9=Primed - TIM WHEELER &The SOUL SHUFFLERS
TTITLE10=Rest In Paradise - GWYN ASHTON
TTITLE11=Out Of Nowhere - INDIGENOUS
TTITLE12=Jeff and His Little Buddies - BUDDAH HEAD
TTITLE13=Arky Shuffle - JIMMY THACKERY
TTITLE14=Django - JOE BONAMASSA
TTITLE15=Return Of The Voodoo Thing - TOM PRINCIPATO
TTITLE16=Cornerstones - PETER FRAMPTON
TTITLE17=Change Is Gonna Come - RICK VITO
EXTD=
EXTT0=
EXTT1=
EXTT2=
EXTT3=
EXTT4=
EXTT5=
EXTT6=
EXTT7=
EXTT8=
EXTT9=
EXTT10=
EXTT11=
EXTT12=
EXTT13=
EXTT14=
EXTT15=
EXTT16=
EXTT17=
PLAYORDER=
